<mxfile host="app.diagrams.net" modified="2023-08-28T16:39:08.153Z" agent="Mozilla/5.0 (X11; Linux x86_64) AppleWebKit/537.36 (KHTML, like Gecko) Chrome/116.0.0.0 Safari/537.36" version="21.6.9" etag="9OIkIaiQe8kk9P1kZpIL" type="github">
  <diagram name="Page-1" id="4529VY_6YAbSnqX6yHRb">
    <mxGraphModel>
      <root>
        <mxCell id="0" />
        <mxCell id="1" parent="0" />
      </root>
    </mxGraphModel>
  </diagram>
</mxfile>
